<svg width="24" height="24" viewBox="0 0 24 24" fill="none" xmlns="http://www.w3.org/2000/svg">
<path fill-rule="evenodd" clip-rule="evenodd" d="M22 18.6496C22 19.8504 21.027 20.8235 19.8261 20.8235H4.17391C2.97304 20.8235 2 19.8504 2 18.6496V6.04087C2 5.08043 2.7787 4.30173 3.73913 4.30173H12.5091L16.0304 3.02608C16.2535 2.94478 16.5004 3.06 16.5817 3.28217L16.9526 4.30173H18.5217C19.4822 4.30173 20.2609 5.08043 20.2609 6.04087V6.91043C21.2213 6.91043 22 7.68913 22 8.64956V18.6496ZM3.73913 5.1713C3.25913 5.1713 2.86957 5.56087 2.86957 6.04087C2.86957 6.52087 3.25913 6.91043 3.73913 6.91043H5.23696H5.31913C5.32478 6.90826 5.32826 6.90347 5.33391 6.9013L10.1087 5.1713H3.73913ZM16.3817 5.25L15.92 3.97869L15.0278 4.30173H15.0291L12.6317 5.1713H12.6274L7.82783 6.91043H16.9852L16.3817 5.25ZM19.3913 6.04087C19.3913 5.56087 19.0017 5.1713 18.5217 5.1713H17.2683L17.9004 6.91043H19.3913V6.04087ZM20.2609 7.78H3.73913C3.42087 7.78 3.12609 7.68826 2.86957 7.53869V18.6496C2.86957 19.37 3.45391 19.9539 4.17391 19.9539H19.8261C20.5465 19.9539 21.1304 19.37 21.1304 18.6496V15.6061H19.3913C18.4309 15.6061 17.6522 14.8274 17.6522 13.867C17.6522 12.9065 18.4309 12.1278 19.3913 12.1278H21.1304V8.64956C21.1304 8.16956 20.7409 7.78 20.2609 7.78ZM21.1304 14.7365V12.9974H19.3913C18.9113 12.9974 18.5217 13.387 18.5217 13.867C18.5217 14.347 18.9113 14.7365 19.3913 14.7365H21.1304ZM19.3913 13.4322H20.2609V14.3017H19.3913V13.4322Z" fill="currentColor"/>
</svg>
