<svg width="24" height="24" viewBox="0 0 24 24" fill="none" xmlns="http://www.w3.org/2000/svg">
<path fill-rule="evenodd" clip-rule="evenodd" d="M11.3116 1H12.6862C12.9595 0.99999 13.1952 0.99998 13.3889 1.01859C13.5948 1.03837 13.7956 1.08207 13.9841 1.19616C14.1329 1.28617 14.263 1.40392 14.3674 1.54299C14.4996 1.71926 14.5631 1.9147 14.6033 2.11757C14.6411 2.30852 14.6645 2.54303 14.6917 2.81494L14.6937 2.83479C14.7496 3.39395 14.7884 3.77581 14.8473 4.05033C14.9069 4.32862 14.9691 4.39852 14.9973 4.42104C15.0677 4.47722 15.1526 4.51237 15.2421 4.52244C15.2779 4.52647 15.3713 4.52098 15.6104 4.36628C15.8462 4.2137 16.1439 3.97104 16.579 3.61504L16.5944 3.60241C16.8062 3.42914 16.9888 3.27971 17.1507 3.17132C17.3227 3.05616 17.506 2.96276 17.7244 2.93172C17.8962 2.90732 18.071 2.91604 18.2395 2.95741C18.4537 3.01002 18.6267 3.12116 18.7864 3.25283C18.9367 3.37676 19.1035 3.54354 19.2968 3.73692L20.2675 4.7076C20.4605 4.90057 20.6269 5.06699 20.7506 5.21696C20.8821 5.3763 20.9931 5.54894 21.0458 5.76264C21.0876 5.93204 21.0964 6.10792 21.0716 6.28066C21.0404 6.49859 20.9471 6.6815 20.8321 6.85318C20.7238 7.0148 20.5747 7.19712 20.4017 7.40855L20.389 7.42399C20.034 7.85792 19.792 8.15477 19.6397 8.38995C19.4852 8.62846 19.4795 8.72166 19.4834 8.75729C19.4934 8.84766 19.5289 8.93333 19.5857 9.00426C19.6082 9.03229 19.6781 9.09412 19.9556 9.1535C20.2293 9.21207 20.6099 9.25079 21.1672 9.30652L21.187 9.3085C21.458 9.33559 21.6917 9.35896 21.8821 9.39658C22.0843 9.43656 22.2792 9.49968 22.4551 9.63122C22.5956 9.7363 22.7145 9.86762 22.8051 10.0179C22.9184 10.2061 22.9619 10.4062 22.9815 10.6114C23 10.8046 23 11.0395 23 11.3119V12.6886C23 12.9608 23 13.1955 22.9816 13.3885C22.9619 13.5935 22.9186 13.7935 22.8054 13.9815C22.7147 14.1322 22.5955 14.2639 22.4546 14.3692C22.2788 14.5005 22.0841 14.5635 21.882 14.6035C21.6918 14.641 21.4583 14.6644 21.1875 14.6914L21.1677 14.6934C20.6109 14.7491 20.2306 14.7878 19.9572 14.8463C19.6799 14.9056 19.61 14.9673 19.5876 14.9953C19.5305 15.0664 19.4949 15.1523 19.485 15.2429C19.4811 15.2784 19.4869 15.3716 19.6413 15.61C19.7936 15.8451 20.0355 16.1418 20.3904 16.5755L20.403 16.591C20.5761 16.8025 20.7253 16.9849 20.8336 17.1465C20.9486 17.3182 21.042 17.5012 21.0732 17.7191C21.098 17.8919 21.0892 18.0678 21.0474 18.2372C20.9947 18.4509 20.8837 18.6235 20.7522 18.7828C20.6285 18.9328 20.4621 19.0992 20.2692 19.2921L19.2989 20.2624C19.1053 20.456 18.9384 20.623 18.7879 20.747C18.628 20.8788 18.4548 20.99 18.2404 21.0426C18.0723 21.0837 17.898 21.0924 17.7267 21.0682C17.5081 21.0372 17.3246 20.9438 17.1524 20.8285C16.9903 20.72 16.8075 20.5704 16.5955 20.3969L16.58 20.3843C16.1445 20.028 15.8466 19.7851 15.6106 19.6324C15.3713 19.4776 15.2778 19.4721 15.242 19.4762C15.1526 19.4863 15.068 19.5214 14.9977 19.5774C14.9694 19.5999 14.9072 19.6698 14.8475 19.9483C14.7886 20.223 14.7497 20.6052 14.6937 21.1648L14.6917 21.1846C14.6645 21.4567 14.6411 21.6914 14.6032 21.8825C14.563 22.0855 14.4995 22.2811 14.367 22.4574C14.2628 22.5962 14.133 22.7137 13.9846 22.8036C13.7959 22.9178 13.595 22.9616 13.389 22.9814C13.1951 23 12.9592 23 12.6858 23H11.3121C11.0396 23 10.8046 23 10.6114 22.9815C10.4061 22.9618 10.2059 22.9184 10.0177 22.805C9.86757 22.7144 9.73637 22.5957 9.63136 22.4553C9.49974 22.2793 9.43658 22.0844 9.39659 21.882C9.35894 21.6916 9.33556 21.4577 9.30845 21.1865L9.30647 21.1666C9.25074 20.6094 9.21202 20.2288 9.15348 19.9551C9.09413 19.6776 9.03232 19.6077 9.00435 19.5853C8.93334 19.5283 8.84754 19.4927 8.75704 19.4828C8.72134 19.4789 8.62825 19.4846 8.39017 19.6388C8.15536 19.7908 7.85901 20.0325 7.42573 20.3869L7.41032 20.3996C7.19965 20.5719 7.01794 20.7206 6.85682 20.8286C6.68565 20.9433 6.50332 21.0364 6.28604 21.0678C6.11212 21.093 5.93497 21.0841 5.76441 21.0418C5.55134 20.9889 5.37918 20.8781 5.22027 20.7469C5.07069 20.6235 4.90466 20.4575 4.71217 20.265L3.73945 19.2922C3.54655 19.0994 3.38018 18.933 3.25652 18.7831C3.12514 18.6238 3.01418 18.4513 2.96142 18.2377C2.91951 18.0681 2.91073 17.892 2.93555 17.719C2.96679 17.5013 3.06003 17.3185 3.17492 17.147C3.28305 16.9855 3.43204 16.8034 3.6048 16.5923L3.61741 16.5769C3.97265 16.1427 4.21478 15.8457 4.36708 15.6104C4.52149 15.3718 4.52709 15.2786 4.52311 15.2428C4.51311 15.1528 4.47779 15.0675 4.42124 14.9969C4.3988 14.9688 4.32887 14.9068 4.0506 14.8472C3.77621 14.7885 3.39456 14.7496 2.8358 14.6938L2.81595 14.6918C2.54368 14.6646 2.3089 14.6411 2.11778 14.6033C1.91476 14.5631 1.71915 14.4996 1.54281 14.3672C1.40387 14.2629 1.28624 14.1329 1.19628 13.9843C1.08213 13.7957 1.03839 13.5949 1.01861 13.3889C0.99998 13.1951 0.99999 12.9594 1 12.686V11.3145C0.99999 11.0409 0.99998 10.8049 1.01864 10.611C1.03846 10.4049 1.08227 10.2038 1.19661 10.0151C1.28642 9.86693 1.40375 9.73727 1.54229 9.63317C1.71875 9.50056 1.91457 9.43698 2.11779 9.39675C2.30912 9.35887 2.54419 9.33538 2.81682 9.30812L2.83668 9.30614C3.3957 9.25024 3.77755 9.21139 4.05207 9.15263C4.33051 9.09305 4.40046 9.03099 4.42288 9.00296C4.47942 8.93229 4.51474 8.84701 4.52474 8.75706C4.52872 8.72126 4.52313 8.62801 4.36872 8.38944C4.21641 8.15412 3.97428 7.85714 3.61903 7.42294L3.60642 7.40753C3.43366 7.19639 3.28465 7.01429 3.17651 6.85282C3.06162 6.68127 2.96838 6.49852 2.93714 6.28074C2.91233 6.10781 2.92111 5.93172 2.963 5.76212C3.01576 5.54853 3.12672 5.37596 3.25811 5.2167C3.38178 5.06679 3.54816 4.90042 3.74107 4.70753L4.71419 3.73441C4.90649 3.5421 5.07234 3.37623 5.22176 3.25289C5.3805 3.12186 5.55246 3.01112 5.76529 2.95817C5.9363 2.91563 6.11396 2.90676 6.28836 2.93208C6.5054 2.96359 6.68753 3.05668 6.85852 3.17126C7.01947 3.27912 7.201 3.42765 7.41148 3.59987L7.42685 3.61245C7.85968 3.96658 8.15572 4.20795 8.3903 4.35988C8.62814 4.51393 8.72116 4.5197 8.7568 4.51583C8.84757 4.50596 8.93362 4.47032 9.00478 4.41311C9.03269 4.39068 9.0944 4.32079 9.15368 4.04348C9.21214 3.77002 9.25083 3.38977 9.30651 2.83301L9.30848 2.81323C9.33558 2.54218 9.35894 2.30843 9.39655 2.11809C9.4365 1.9159 9.49957 1.72104 9.63103 1.54515C9.73621 1.40441 9.86769 1.28542 10.0182 1.19477C10.2063 1.08148 10.4064 1.0381 10.6115 1.01846C10.8046 0.99998 11.0394 0.99999 11.3116 1ZM10.6953 1.89446C10.5566 1.90774 10.5028 1.93019 10.4722 1.94858C10.4193 1.9805 10.373 2.0224 10.3359 2.07195C10.3146 2.10047 10.2869 2.1518 10.2599 2.28866C10.2314 2.43275 10.2118 2.62417 10.1821 2.92058L10.1794 2.94762C10.1271 3.47063 10.0842 3.90022 10.0142 4.22745C9.94391 4.55644 9.8283 4.88017 9.55616 5.09896C9.35406 5.26143 9.10968 5.36266 8.85188 5.39068C8.50479 5.4284 8.19422 5.28134 7.91191 5.09849C7.63117 4.91666 7.29719 4.6434 6.89063 4.31074L6.8696 4.29354C6.63941 4.1052 6.49045 3.98393 6.36864 3.90229C6.25295 3.82477 6.19715 3.80807 6.16193 3.80295C6.10052 3.79404 6.03797 3.79716 5.97775 3.81214C5.94321 3.82073 5.88935 3.84291 5.78195 3.93156C5.66887 4.0249 5.53271 4.1604 5.3224 4.3707L4.37741 5.31569C4.16645 5.52666 4.03053 5.66324 3.93694 5.7767C3.84806 5.88443 3.82589 5.93847 3.81732 5.97315C3.80257 6.03287 3.79948 6.09487 3.80822 6.15576C3.81329 6.19112 3.82997 6.2471 3.90769 6.36314C3.98953 6.48535 4.11118 6.63478 4.30011 6.86569L4.31738 6.88679C4.65108 7.29464 4.92521 7.62966 5.10748 7.91129C5.29079 8.19451 5.43805 8.50614 5.39935 8.85429C5.37095 9.10976 5.27064 9.35193 5.11007 9.55266C4.89119 9.8263 4.56636 9.9425 4.23624 10.0131C3.90783 10.0834 3.47653 10.1266 2.95135 10.1791L2.92424 10.1818C2.62614 10.2116 2.43358 10.2313 2.28869 10.26C2.15105 10.2872 2.09954 10.3152 2.07095 10.3367C2.02217 10.3733 1.98085 10.419 1.94923 10.4712C1.93066 10.5018 1.908 10.5558 1.89459 10.6952C1.88047 10.842 1.88 11.0353 1.88 11.3345V12.6661C1.88 12.965 1.88047 13.1581 1.89457 13.3048C1.90795 13.444 1.93057 13.498 1.94911 13.5286C1.98079 13.581 2.02221 13.6267 2.07113 13.6635C2.09972 13.6849 2.15119 13.7128 2.28864 13.74C2.43335 13.7687 2.62564 13.7884 2.92336 13.8181L2.95046 13.8209C3.47539 13.8733 3.90651 13.9164 4.2348 13.9867C4.56485 14.0574 4.88956 14.1736 5.10842 14.4471C5.26901 14.6479 5.36933 14.8901 5.39772 15.1456C5.43642 15.4937 5.28915 15.8053 5.10585 16.0886C4.92357 16.3702 4.64945 16.7052 4.31576 17.113L4.29849 17.1341C4.10958 17.365 3.98793 17.5145 3.90609 17.6367C3.82838 17.7527 3.8117 17.8087 3.80662 17.844C3.79789 17.9049 3.80098 17.9669 3.81573 18.0267C3.8243 18.0613 3.84647 18.1154 3.93534 18.2231C4.02893 18.3365 4.16485 18.4731 4.37581 18.6841L5.32038 19.6287C5.5309 19.8392 5.66719 19.9748 5.7804 20.0682C5.8879 20.157 5.94182 20.1791 5.97641 20.1877C6.03646 20.2026 6.09884 20.2057 6.16008 20.1969C6.19534 20.1918 6.2512 20.1751 6.36701 20.0975C6.48895 20.0158 6.63807 19.8944 6.86848 19.7059L6.88955 19.6886C7.29652 19.3556 7.63084 19.0821 7.91186 18.9001C8.19447 18.7171 8.50538 18.57 8.85282 18.608C9.10985 18.6362 9.35352 18.7371 9.55518 18.899C9.82778 19.1178 9.94358 19.4418 10.014 19.771C10.0841 20.0985 10.1271 20.5285 10.1794 21.052L10.1821 21.0791C10.2118 21.3757 10.2314 21.5672 10.2599 21.7114C10.2869 21.8483 10.3147 21.8997 10.336 21.9282C10.373 21.9776 10.4192 22.0194 10.4721 22.0513C10.5026 22.0697 10.5565 22.0922 10.6953 22.1055C10.8416 22.1195 11.034 22.12 11.332 22.12H12.6658C12.9649 22.12 13.158 22.1195 13.3048 22.1054C13.4441 22.092 13.4981 22.0694 13.5287 22.0508C13.581 22.0192 13.6267 21.9778 13.6634 21.929C13.6849 21.9003 13.7128 21.8489 13.74 21.7115C13.7686 21.5669 13.7883 21.3748 13.8181 21.0772L13.8208 21.05C13.8734 20.5244 13.9165 20.0926 13.987 19.7638C14.0579 19.4332 14.1746 19.108 14.4493 18.8891C14.6489 18.7301 14.8894 18.6305 15.1431 18.6018C15.4921 18.5623 15.8046 18.7098 16.0886 18.8935C16.371 19.0763 16.707 19.3512 17.1161 19.6859L17.1373 19.7032C17.3691 19.8929 17.5192 20.0151 17.6419 20.0972C17.7584 20.1752 17.8146 20.1918 17.8501 20.1969C17.9104 20.2054 17.9718 20.2023 18.0309 20.1878C18.0658 20.1793 18.12 20.1571 18.2281 20.068C18.342 19.9741 18.4791 19.8377 18.6908 19.626L19.6327 18.684C19.8438 18.473 19.9798 18.3364 20.0734 18.2229C20.1623 18.1151 20.1845 18.061 20.193 18.0263C20.2077 17.9667 20.2108 17.9047 20.2021 17.8439C20.1971 17.8086 20.1804 17.7526 20.1025 17.6363C20.0205 17.5138 19.8986 17.3641 19.7093 17.1328L19.6922 17.1118C19.3588 16.7043 19.0849 16.3697 18.9028 16.0885C18.7197 15.8058 18.5723 15.4948 18.6102 15.1474C18.6383 14.89 18.7394 14.6461 18.9014 14.4443C19.1202 14.1719 19.444 14.0561 19.7731 13.9858C20.1004 13.9157 20.53 13.8728 21.0531 13.8205L21.0801 13.8178C21.3763 13.7882 21.5675 13.7686 21.7114 13.7401C21.8481 13.7131 21.8994 13.6855 21.928 13.6641C21.9776 13.6271 22.0195 13.5807 22.0515 13.5277C22.0699 13.4971 22.0923 13.4433 22.1056 13.3046C22.1195 13.1586 22.12 12.9664 22.12 12.6688V11.3318C22.12 11.0339 22.1195 10.8415 22.1055 10.6953C22.0922 10.5565 22.0698 10.5027 22.0514 10.4722C22.0195 10.4192 21.9776 10.373 21.9281 10.336C21.8996 10.3146 21.8483 10.2869 21.7115 10.2599C21.5674 10.2314 21.376 10.2118 21.0796 10.1822L21.0525 10.1794C20.529 10.1271 20.099 10.0841 19.7714 10.014C19.442 9.94353 19.118 9.82762 18.8992 9.55481C18.7377 9.35338 18.6369 9.11008 18.6087 8.85342C18.5705 8.50572 18.7178 8.19448 18.901 7.91161C19.0832 7.63023 19.3572 7.29543 19.6907 6.8878L19.7079 6.86674C19.8971 6.63552 20.019 6.48586 20.1009 6.36348C20.1788 6.24723 20.1955 6.1912 20.2005 6.15587C20.2092 6.09506 20.2062 6.03313 20.1914 5.97348C20.1829 5.93878 20.1607 5.88471 20.0718 5.77693C19.9782 5.66343 19.8422 5.52679 19.6311 5.31573L18.6887 4.37333C18.4772 4.16183 18.3403 4.02558 18.2266 3.93178C18.1186 3.84272 18.0644 3.82056 18.0296 3.81202C17.9703 3.79745 17.9087 3.79438 17.8482 3.80297C17.8128 3.80801 17.7566 3.82467 17.6403 3.90259C17.5177 3.98464 17.3678 4.10665 17.1362 4.29612L17.1151 4.31338C16.7064 4.64781 16.3707 4.92252 16.0885 5.10511C15.8047 5.28871 15.4925 5.43615 15.1437 5.39692C14.8895 5.36832 14.6485 5.2685 14.4485 5.10895C14.1742 4.89012 14.0576 4.56516 13.9868 4.23476C13.9164 3.90622 13.8733 3.47475 13.8208 2.9495L13.818 2.92235C13.7883 2.62499 13.7686 2.43298 13.74 2.28847C13.7129 2.15126 13.685 2.09982 13.6635 2.0712C13.6268 2.02222 13.5809 1.98076 13.5286 1.94907C13.4979 1.93054 13.444 1.90794 13.3048 1.89456C13.1581 1.88047 12.9651 1.88 12.6663 1.88H11.3315C11.0338 1.88 10.8415 1.88047 10.6953 1.89446ZM11.9959 8.21574C9.90603 8.21574 8.21188 9.9099 8.21188 11.9997C8.21188 14.0896 9.90603 15.7837 11.9959 15.7837C14.0857 15.7837 15.7799 14.0896 15.7799 11.9997C15.7799 9.9099 14.0857 8.21574 11.9959 8.21574ZM7.33188 11.9997C7.33188 9.42389 9.42002 7.33574 11.9959 7.33574C14.5717 7.33574 16.6599 9.42389 16.6599 11.9997C16.6599 14.5756 14.5717 16.6637 11.9959 16.6637C9.42002 16.6637 7.33188 14.5756 7.33188 11.9997Z" fill="currentColor"/>
</svg>
