<svg width="32" height="32" viewBox="0 0 32 32" fill="none" xmlns="http://www.w3.org/2000/svg">
<path d="M0 8C0 3.58172 3.58172 0 8 0H24C28.4183 0 32 3.58172 32 8V24C32 28.4183 28.4183 32 24 32H8C3.58172 32 0 28.4183 0 24V8Z" fill="#37383A"/>
<g clip-path="url(#clip0_219_4049)">
<path d="M6.5 6.82764H25.5V16.3833C25.5 18.8329 24.1932 21.0965 22.0719 22.3215L16 25.8277L9.92816 22.3215C7.80679 21.0965 6.5 18.8329 6.5 16.3833L6.5 6.82764Z" fill="#FFDD2D"/>
<path fill-rule="evenodd" clip-rule="evenodd" d="M11.7415 12.0688V15.0555C12.1453 14.5942 12.8796 14.2821 13.7192 14.2821H14.6315V17.754C14.6315 18.6777 14.3833 19.4862 14.0151 19.9309H17.9837C17.6162 19.4857 17.3686 18.6783 17.3686 17.7557V14.2821H18.281C19.1205 14.2821 19.8548 14.5942 20.2587 15.0555V12.0688H11.7415Z" fill="#333333"/>
</g>
<defs>
<clipPath id="clip0_219_4049">
<rect width="19" height="22.2759" fill="white" transform="translate(6.5 4.8623)"/>
</clipPath>
</defs>
</svg>
