<svg width="32" height="32" viewBox="0 0 32 32" fill="none" xmlns="http://www.w3.org/2000/svg">
<path d="M0 8C0 3.58172 3.58172 0 8 0H24C28.4183 0 32 3.58172 32 8V24C32 28.4183 28.4183 32 24 32H8C3.58172 32 0 28.4183 0 24V8Z" fill="#476BF0"/>
<path fill-rule="evenodd" clip-rule="evenodd" d="M10.2301 7.74506C13.5409 6.27163 17.5829 6.36757 19.7519 7.33387C20.4338 7.65117 20.8923 7.84306 21.0999 8.22136C18.8487 7.61828 17.8824 7.50931 15.9978 7.55523C13.3182 7.6032 9.75314 8.66407 8.39073 9.4748L7.79107 10.2211C9.75314 9.06018 13.4141 8.30222 15.444 8.2378C17.7097 8.20696 19.4668 8.41324 21.0842 8.99919C20.9882 9.41038 20.7826 9.61735 20.4345 9.82431C13.9692 8.69765 10.1499 10.0285 6.69525 12.2798L6.44305 13.0241C10.2939 10.3787 15.0143 9.65024 19.5635 10.4418C17.931 11.0127 15.982 11.1394 14.3502 11.517C12.9563 11.835 12.2114 11.931 10.3548 12.5505C8.47228 13.1687 7.36001 13.8026 6.66441 14.6113C6.33135 14.993 6.07778 15.4357 6.01336 15.9099C5.98389 16.1943 5.99965 16.45 6.0956 16.7049C6.17098 16.9263 6.34642 17.1476 6.53763 17.3697C6.31696 17.7493 6.1237 18.2428 6.44305 18.8136C6.58491 19.0809 6.9495 19.3502 7.2997 19.6065L7.2017 19.8896C7.15373 20.2247 7.10781 20.6194 7.32985 20.9518C7.70883 21.5542 8.16868 21.9517 8.89718 22.332C9.00957 22.8241 9.18227 23.2188 9.56262 23.5697C10.3706 24.3133 12.1785 25.7401 15.394 25.9629C17.8042 26.1225 19.5306 25.392 20.1809 25.0747L20.9725 24.6635C19.6265 25.2008 17.3608 25.5188 15.505 25.3598C12.8117 25.1377 10.4049 23.3792 10.1033 22.8707C10.1972 22.9324 10.3247 22.981 10.4337 23.0297C13.5882 24.5511 17.6603 25.3762 22.8742 23.2517L23.3039 22.8392C18.5636 24.3126 14.414 24.2667 9.95942 21.9359C10.0081 21.7146 10.1033 21.5213 10.3076 21.3664C11.4479 21.8701 12.5424 22.2848 13.874 22.5534C15.4269 22.8392 17.2012 22.9036 18.6602 22.8392C20.1336 22.7761 23.0483 22.0469 24.4278 21.3178C24.5539 21.2074 24.617 21.0183 24.7431 20.8901C22.0512 21.8701 18.8494 22.332 16.9168 22.1881C15.0308 22.047 13.3531 21.8235 11.1327 20.81C11.5596 20.6366 12.0037 20.4933 12.4478 20.3645C13.9055 20.81 15.394 21.0772 17.1532 21.1581C18.898 21.2376 22.9695 20.5893 25.536 19.0357C25.6162 18.8136 25.695 18.5738 25.695 18.5738C25.695 18.5738 22.1293 20.4789 18.09 20.4789C16.2033 20.4789 15.0472 20.2076 14.1919 20.002C16.0923 19.6525 18.4861 19.3667 21.1781 18.6862C22.5405 18.3366 24.2209 17.543 24.9816 16.8783C25.6313 16.2903 26.1391 15.5289 25.9657 14.7552C25.9314 14.5468 25.647 14.0582 25.2982 13.8821C25.6313 13.4544 25.5997 13.0892 25.5531 12.7739C25.5202 12.5327 25.4092 12.2654 25.2687 12.0283C25.0406 11.7153 24.7477 11.4551 24.41 11.2655C24.4759 10.9327 24.4317 10.5875 24.2839 10.2821C23.9515 9.71124 23.3505 9.22123 22.3198 8.69765C22.2725 8.49069 22.1444 8.22136 21.9244 7.95271C20.6257 6.66843 18.5012 6.05027 16.7098 6.01806C16.6104 6.01583 16.5111 6.01469 16.4117 6.01463C14.3167 6.01463 12.6349 6.48545 11.5939 6.97134C11.0525 7.20571 10.6406 7.46065 10.2301 7.74506ZM22.1917 9.4748C22.6371 9.76058 23.1442 10.1889 23.2059 10.633C22.7317 10.4562 22.2245 10.2698 21.7339 10.1416C21.8929 9.96686 22.1286 9.69753 22.1917 9.4748ZM19.815 11.4567C20.3557 11.2491 20.7182 11.0291 21.0369 10.7742C21.7476 10.9633 22.4137 11.2025 22.9551 11.4389C22.8619 11.578 22.3191 12.0797 22.1533 12.0797C22.1448 12.0803 22.1363 12.0786 22.1286 12.0749C21.37 11.8672 20.7045 11.6137 19.815 11.4567ZM24.079 12.09C24.506 12.4546 24.6321 12.7081 24.4272 13.1049C24.1434 12.8993 23.8398 12.7876 23.5088 12.6293C23.7131 12.4703 23.9043 12.2976 24.079 12.09ZM10.9113 13.5497C12.8919 12.9603 15.2055 12.5197 17.2985 12.2654C18.7376 12.09 19.5004 12.2503 20.8635 12.6142C17.3615 13.549 13.9055 13.8485 10.6091 14.8169C7.95212 15.5892 7.24693 16.5617 7.23597 16.5617C6.06133 14.9443 10.1335 13.7889 10.9113 13.5497ZM12.7822 15.4981C15.712 14.8641 18.4382 14.4687 19.5628 14.1836C20.9266 13.8485 21.8771 13.5333 22.5405 13.2173C22.5727 13.1693 23.65 13.6916 23.7603 13.8163C23.3971 14.1192 22.8914 14.3741 22.3349 14.5619C20.6716 15.165 17.6459 15.7982 16.0457 16.0401C14.4291 16.3081 13.0797 16.513 11.2917 16.9866C10.2603 17.2586 9.56262 17.5753 9.05548 17.909C8.67513 17.6863 8.45377 17.6239 8.10563 17.3374C9.34126 16.2903 11.8619 15.7043 12.7816 15.4981H12.7822ZM12.0496 18.068C14.8389 17.3834 17.2971 17.258 20.6881 16.3396C22.3191 15.9099 23.5081 15.4487 24.2538 14.8813C24.3634 14.784 24.4738 14.7058 24.5861 14.6113C25.5682 16.1327 21.8764 17.3059 19.3551 17.8473C17.9605 18.1297 16.0272 18.4778 15.3933 18.5909C13.7485 18.8602 13.2065 19.0035 12.0661 19.3358C11.4959 19.1131 10.925 18.8753 10.4042 18.6053C10.925 18.3839 11.4959 18.2092 12.049 18.0687L12.0496 18.068ZM8.18445 18.5738C8.07342 18.6697 7.93019 18.7657 7.81986 18.8753C7.56766 18.7314 7.31272 18.4175 7.43882 18.1297C7.69239 18.29 7.88222 18.4175 8.18445 18.5738ZM9.34058 19.1631C9.81619 19.3852 10.3069 19.588 10.766 19.7957C10.4572 19.9086 10.1606 20.0523 9.88061 20.2247C9.50236 20.0183 9.12722 19.8063 8.75531 19.5887C8.91362 19.4462 9.11853 19.3043 9.34058 19.1624V19.1631ZM9.15211 20.8257C9.04041 20.9847 8.96022 21.1101 8.91431 21.2705C8.51682 20.9367 8.32562 20.6674 8.34275 20.3652C8.61208 20.5399 8.88141 20.6818 9.15143 20.8257H9.15211Z" fill="white"/>
</svg>
