<svg width="32" height="32" viewBox="0 0 32 32" fill="none" xmlns="http://www.w3.org/2000/svg">
<path d="M0 8C0 3.58172 3.58172 0 8 0H24C28.4183 0 32 3.58172 32 8V24C32 28.4183 28.4183 32 24 32H8C3.58172 32 0 28.4183 0 24V8Z" fill="#FFE600"/>
<g clip-path="url(#clip0_219_4058)">
<path d="M19.9262 14.6622V12.0392L20.8723 11.0904V13.3687L21.6958 14.193L25.0059 10.877L25.8244 11.6979C25.8189 11.076 25.6953 9.28483 24.1795 7.79221C22.544 6.21401 20.7779 6.92599 20.1734 7.531L16.8657 10.8476L17.7095 11.6934L16.0021 13.405L14.2941 11.6934L15.1379 10.8476L11.8297 7.5305C11.2256 6.92549 9.45912 6.21351 7.82363 7.79171C6.30776 9.28433 6.18566 11.0755 6.17871 11.6954L6.99571 10.877L10.3059 14.1955L11.1293 13.3711V11.0924L12.0754 12.0412V14.6647L13.4111 16.0016L6.85624 22.5727L9.44621 25.1673L16.0021 18.5973L22.5539 25.1673L25.1444 22.5727L18.5905 16.0016L19.9262 14.6622Z" fill="#2B2D33"/>
</g>
<defs>
<clipPath id="clip0_219_4058">
<rect width="20" height="20" fill="white" transform="translate(6 6)"/>
</clipPath>
</defs>
</svg>
