<svg width="32" height="32" viewBox="0 0 32 32" fill="none" xmlns="http://www.w3.org/2000/svg">
<path d="M0 8C0 3.58172 3.58172 0 8 0H24C28.4183 0 32 3.58172 32 8V24C32 28.4183 28.4183 32 24 32H8C3.58172 32 0 28.4183 0 24V8Z" fill="#CA3333"/>
<g clip-path="url(#clip0_219_4020)">
<path d="M16.0699 6.37305C17.3898 6.37305 17.8046 7.31287 18.1525 8.25122C18.2987 8.64969 21.7287 17.9743 21.8318 18.2542C21.8593 18.3322 21.8407 18.4604 21.7198 18.5068C21.5981 18.5525 19.816 19.2404 19.7173 19.2772C19.6186 19.3148 19.5081 19.2603 19.4725 19.1623C19.4354 19.0658 18.6956 17.033 18.6125 16.8061H13.5287C13.4486 17.033 12.7 19.0703 12.6666 19.1623C12.6325 19.2559 12.5264 19.3192 12.421 19.2772C12.3157 19.236 10.5268 18.5481 10.42 18.5068C10.3176 18.467 10.2709 18.3514 10.3065 18.2542C10.4326 17.9051 13.8107 8.72997 13.9828 8.25122C14.3182 7.32686 14.747 6.37305 16.0699 6.37305ZM10.0349 23.0579C9.9281 23.0579 9.84277 23.1463 9.84277 23.2538V25.4332C9.84277 25.5408 9.9281 25.6277 10.0349 25.6277H22.0997C22.2088 25.6277 22.2941 25.5408 22.2941 25.4332V23.2538C22.2941 23.1463 22.2088 23.0579 22.0997 23.0579H10.0349ZM16.058 9.4179L14.3397 14.5405H17.8046L16.0803 9.4179H16.058ZM41.8428 17.8174C41.5898 17.9021 41.4229 17.9227 41.224 17.9227C40.813 17.9227 40.5852 17.7614 40.5852 17.3431C40.5852 16.907 40.8746 16.7612 41.4429 16.7612C41.5816 16.7612 41.7182 16.7811 41.782 16.8032V17.1155C41.782 17.4521 41.8005 17.673 41.8428 17.8174ZM43.3037 18.3168C43.0002 17.8594 42.9209 17.5898 42.9209 17.0131V15.842C42.9209 15.2115 42.8467 14.9839 42.679 14.7541C42.4453 14.4286 42.0557 14.2872 41.3398 14.2872C40.833 14.2872 40.3411 14.3417 39.8648 14.4625L40.0369 15.2948C40.3589 15.2498 40.6965 15.2115 40.9347 15.2115C41.6952 15.2115 41.782 15.3205 41.782 15.8869V16.0983C41.6128 16.0534 41.4229 16.021 41.2025 16.021C40.0577 16.021 39.453 16.5771 39.453 17.4978C39.453 18.361 40.0992 18.8316 40.8864 18.8316C41.1803 18.8316 41.4874 18.7779 41.7308 18.6792C41.8777 18.6158 41.9415 18.5783 42.1314 18.456C42.2457 18.621 42.4749 18.7896 42.5684 18.8213L43.3037 18.3168ZM54.628 17.8174C54.3735 17.9021 54.2095 17.9227 54.0092 17.9227C53.5967 17.9227 53.3659 17.7614 53.3659 17.3431C53.3659 16.907 53.659 16.7612 54.2288 16.7612C54.3676 16.7612 54.5048 16.7811 54.5671 16.8032V17.1155C54.5671 17.4521 54.5849 17.673 54.628 17.8174ZM56.0904 18.3168C55.7847 17.8594 55.7068 17.5898 55.7068 17.0131V15.842C55.7068 15.2115 55.6311 14.9839 55.4619 14.7541C55.2312 14.4286 54.8409 14.2872 54.1227 14.2872C53.6167 14.2872 53.1218 14.3417 52.6455 14.4625L52.8154 15.2948C53.1382 15.2498 53.4765 15.2115 53.7213 15.2115C54.4774 15.2115 54.5671 15.3205 54.5671 15.8869V16.0983C54.398 16.0534 54.2095 16.021 53.9847 16.021C52.8384 16.021 52.2315 16.5771 52.2315 17.4978C52.2315 18.361 52.8792 18.8316 53.6701 18.8316C53.9677 18.8316 54.2719 18.7779 54.513 18.6792C54.6621 18.6158 54.7237 18.5783 54.9136 18.456C55.0294 18.621 55.2586 18.7896 55.3529 18.8213L56.0904 18.3168ZM65.0041 18.7337C65.0041 18.7337 64.3764 17.4057 64.2228 17.1037C64.0499 16.7634 63.8897 16.5285 63.5365 16.4438V16.4246C63.7732 16.3797 63.9616 16.2375 64.1679 15.803C64.363 15.3795 64.4209 15.2881 64.5359 15.1872C64.6487 15.0871 64.803 15.1231 64.803 15.1231L64.8609 14.3402C64.6969 14.3181 64.5151 14.3174 64.3274 14.3277C64.0158 14.3461 63.8548 14.4352 63.7012 14.5884C63.581 14.7055 63.4994 14.8808 63.3985 15.0819C63.2917 15.3014 63.2071 15.4782 63.0958 15.7013C62.9852 15.9304 62.9333 16.0335 62.6358 16.0335H62.4421V12.5651H61.2958V18.7337H62.4421V16.9601L62.5987 16.9571C62.9274 16.9571 62.9852 17.0389 63.1589 17.3829C63.3621 17.7931 63.7517 18.7337 63.7517 18.7337H65.0041ZM32.7117 18.7337H34.0346L32.0336 12.6683C31.8229 12.5983 31.5624 12.5548 31.2842 12.5548C30.9808 12.5548 30.8724 12.5946 30.635 12.6683L28.5175 18.7337H29.787C29.787 18.7337 29.9584 18.2019 30.1602 17.5427H32.3533C32.5492 18.2011 32.7117 18.7337 32.7117 18.7337ZM30.4822 16.5255C30.4822 16.5255 30.8487 15.308 30.9058 15.1187C31.0512 14.6282 31.2723 13.8489 31.2723 13.8489H31.3087C31.3087 13.8489 31.5135 14.6562 31.647 15.1099C31.6975 15.2903 32.0477 16.5255 32.0477 16.5255H30.4822ZM45.2565 15.8317C44.8521 15.8317 44.5234 16.1595 44.5234 16.5609C44.5234 16.9652 44.8521 17.2908 45.2565 17.2908C45.6616 17.2908 45.9888 16.9652 45.9888 16.5609C45.9888 16.1595 45.6616 15.8317 45.2565 15.8317ZM35.6053 12.5651H34.456V18.7329H35.6053V12.5651ZM58.4386 15.2675C59.0737 15.2808 59.1524 15.4111 59.1524 15.94V18.7337H60.2912V15.842C60.2912 15.2115 60.217 14.9839 60.0479 14.7541C59.8142 14.4286 59.3549 14.2872 58.5781 14.2872C57.8094 14.2872 57.3198 14.3682 56.6898 14.5545V18.7337H57.8406V15.3205C58.1426 15.2771 58.196 15.2675 58.4386 15.2675ZM38.4477 12.4554C37.7295 12.4554 37.3385 12.5968 37.1085 12.9216C36.9393 13.1522 36.8644 13.3849 36.8644 14.0169V14.5545H36.2938V15.4767H36.8644V18.7337H38.004L38.001 15.4767H39.1369V14.5545H38.001L38.004 14.0603C38.004 13.4947 38.0908 13.3849 38.852 13.3849C38.9344 13.3849 39.0271 13.3893 39.1258 13.3967L39.3054 12.5106C39.0242 12.4738 38.7363 12.4554 38.4477 12.4554ZM47.5914 12.5128C47.9824 12.49 48.8564 12.4576 49.4047 12.4576C49.5049 12.4576 49.6087 12.4583 49.7126 12.4635C50.7907 12.4635 51.4087 13.2428 51.4087 14.1575C51.4087 14.7799 51.1216 15.1931 50.4486 15.4391C51.2403 15.6129 51.655 16.2265 51.655 16.977C51.655 17.5279 51.4985 17.9655 51.2113 18.2638C50.8389 18.6276 50.275 18.8316 49.5242 18.8316C48.8564 18.8316 48.018 18.811 47.5914 18.786V12.5128ZM49.4047 13.5234C49.2148 13.5234 48.9796 13.5271 48.7466 13.5352V15.0163H49.4054C49.6666 15.0163 49.8766 14.9442 50.0198 14.805C50.1563 14.6739 50.2275 14.4882 50.2275 14.268C50.2275 13.7944 49.9693 13.5263 49.4893 13.5234H49.4047ZM49.4284 17.7681H49.4781C50.0769 17.7681 50.4434 17.4521 50.4479 16.8157C50.4419 16.5874 50.3536 16.3767 50.1956 16.2243C50.0227 16.0519 49.7779 15.9621 49.4908 15.9621H48.7466V17.7614C48.9566 17.7658 49.188 17.7666 49.4284 17.7681Z" fill="white"/>
</g>
<defs>
<clipPath id="clip0_219_4020">
<rect width="12.3148" height="19" fill="white" transform="translate(9.84277 6.5)"/>
</clipPath>
</defs>
</svg>
