<svg width="32" height="32" viewBox="0 0 32 32" fill="none" xmlns="http://www.w3.org/2000/svg">
<path d="M0 8C0 3.58172 3.58172 0 8 0H24C28.4183 0 32 3.58172 32 8V24C32 28.4183 28.4183 32 24 32H8C3.58172 32 0 28.4183 0 24V8Z" fill="#7F42E1"/>
<g clip-path="url(#clip0_238_1137)">
<path d="M21.5827 21.8682H20.2417V17.2744H21.5827V18.9396H21.918C22.5789 18.9396 22.8088 18.8248 23.2207 17.8582L23.4698 17.2744H24.782V17.3797L24.4181 18.2793C24.1977 18.8248 23.9008 19.2555 23.5847 19.5139L24.9257 21.7629V21.8682H23.5176L22.3969 19.9924H21.5827V21.8682Z" fill="white"/>
<path d="M14.7321 17.2744H16.0731V18.8439H17.7494V17.2744H19.0904V21.8682H17.7494V20.0115H16.0731V21.8682H14.7321V17.2744Z" fill="white"/>
<path d="M9.30689 17.3412C9.872 17.2072 10.5329 17.1689 10.9544 17.1689C12.966 17.1689 13.5023 18.059 13.4832 19.0352V20.8822L13.9621 20.8918V21.8488C13.7514 21.9063 13.5215 21.9541 13.2916 21.9541C12.7265 21.9541 12.4391 21.6574 12.3721 21.2938H12.2859C11.941 21.7723 11.328 21.9828 10.7341 21.9828C9.81456 21.9828 8.96204 21.4852 8.96204 20.4324C8.96204 19.2457 10.054 18.9394 11.1364 18.9394H12.238C12.2188 18.3748 11.5579 18.1738 10.8203 18.1738C10.3797 18.1738 9.83371 18.2504 9.44099 18.4035L9.30689 17.3412ZM10.303 20.4324C10.303 20.8439 10.5809 21.0066 11.031 21.0066C11.759 21.0066 12.238 20.5951 12.238 19.8103L11.3855 19.8008C10.5904 19.8008 10.303 20.0113 10.303 20.4324Z" fill="white"/>
<path d="M6.32377 16.7479C5.06896 16.8531 4.38887 17.2838 4.27392 18.4131H4.37929C4.74328 17.7815 5.38506 17.4273 6.2184 17.4273C7.34869 17.4273 8.43108 18.1164 8.43108 19.7147C8.43108 21.2364 7.35826 22.0115 5.85441 22.0115C4.12066 22.0115 3.19153 20.8822 3.19153 18.9012C3.19153 17.4656 3.65131 15.8004 6.32377 15.5803L7.93298 15.4463L7.95217 16.6139L6.32377 16.7479ZM5.88315 20.8822C6.7165 20.8822 7.05174 20.3941 7.05174 19.7147C7.05174 18.9777 6.67818 18.5471 5.91188 18.5471C5.1839 18.5471 4.78159 18.9299 4.58044 19.3223C4.58044 20.241 4.9157 20.8822 5.88315 20.8822Z" fill="white"/>
<path d="M24.3391 10.1698C24.9043 10.0358 25.5652 9.99756 25.9867 9.99756C27.9982 9.99756 28.5346 10.8876 28.5154 11.8638V13.7109L28.9944 13.7204V14.6775C28.7836 14.7349 28.5538 14.7827 28.3239 14.7827C27.7587 14.7827 27.4714 14.486 27.4043 14.1224H27.3181C26.9733 14.6009 26.3602 14.8114 25.7664 14.8114C24.8468 14.8114 23.9943 14.3138 23.9943 13.261C23.9943 12.0743 25.0863 11.7681 26.1687 11.7681H27.2702C27.251 11.2034 26.5901 11.0024 25.8526 11.0024C25.4119 11.0024 24.8659 11.079 24.4732 11.2321L24.3391 10.1698ZM25.3353 13.261C25.3353 13.6726 25.6131 13.8353 26.0633 13.8353C26.7913 13.8353 27.2702 13.4237 27.2702 12.639L26.4177 12.6294C25.6227 12.6294 25.3353 12.84 25.3353 13.261Z" fill="white"/>
<path d="M20.3105 14.6968H18.9695V10.103H20.3105V11.7683H20.6458C21.3067 11.7683 21.5366 11.6534 21.9485 10.6868L22.1975 10.103H23.5098V10.2083L23.1458 11.1079C22.9255 11.6534 22.6286 12.0841 22.3125 12.3425L23.6535 14.5915V14.6968H22.2454L21.1247 12.821H20.3105V14.6968Z" fill="white"/>
<path d="M16.4805 10.103H17.8215V14.6968H16.4805V13.0507C16.1165 13.2038 15.695 13.2995 15.264 13.2995C14.2486 13.2995 13.4344 12.7732 13.4344 11.4716V10.103H14.7755V11.4812C14.7755 11.9023 15.0437 12.2564 15.6279 12.2564C15.8962 12.2564 16.2123 12.1798 16.4805 12.065V10.103Z" fill="white"/>
<path d="M10.2866 14.8497C8.87851 14.8497 7.70032 13.931 7.70032 12.3997C7.70032 10.8685 8.87851 9.94971 10.2866 9.94971C11.6851 9.94971 12.8633 10.8685 12.8633 12.3997C12.8633 13.931 11.6851 14.8497 10.2866 14.8497ZM10.2866 13.7204C11.0433 13.7204 11.4839 13.1558 11.4839 12.3997C11.4839 11.6437 11.0433 11.079 10.2866 11.079C9.52028 11.079 9.07966 11.6437 9.07966 12.3997C9.07966 13.1558 9.52028 13.7204 10.2866 13.7204Z" fill="white"/>
<path d="M7.36789 10.103V11.2898H5.85446V14.6968H4.51344V11.2898H3V10.103H7.36789Z" fill="white"/>
</g>
<defs>
<clipPath id="clip0_238_1137">
<rect width="26" height="12.1001" fill="white" transform="translate(3 9.94971)"/>
</clipPath>
</defs>
</svg>

