<svg width="32" height="32" viewBox="0 0 32 32" fill="none" xmlns="http://www.w3.org/2000/svg">
<path d="M0 8C0 3.58172 3.58172 0 8 0H24C28.4183 0 32 3.58172 32 8V24C32 28.4183 28.4183 32 24 32H8C3.58172 32 0 28.4183 0 24V8Z" fill="#CC003D"/>
<mask id="mask0_238_1126" style="mask-type:luminance" maskUnits="userSpaceOnUse" x="5" y="8" width="22" height="16">
<path d="M27 8.63184H5V23.3681H27V8.63184Z" fill="white"/>
</mask>
<g mask="url(#mask0_238_1126)">
<path d="M23.3549 18.7533C23.448 18.364 23.5706 17.2254 23.5706 17.2254H22.4774C22.4706 17.3418 22.4468 17.7306 22.4127 18.1273C22.3616 18.7147 22.1919 19.2556 21.6011 19.2556H21.1459C21.1448 19.2062 21.1459 17.2254 21.1459 17.2254H20.0335V23.3682H21.1459V20.2494H21.8162L22.9082 23.3659H24.1018L22.7652 19.767C23.0427 19.557 23.2584 19.1546 23.3549 18.7533ZM10.7515 11.8705C10.7606 10.2092 11.1647 9.66262 11.5909 9.65297C12.0166 9.66262 12.4207 10.2092 12.4298 11.871V11.8716C12.4207 13.4948 12.0166 14.0493 11.5909 14.0579C11.1653 14.0493 10.7606 13.4948 10.7509 11.8716L10.7515 11.8705ZM11.566 15.0647L11.5813 15.0653L11.5909 15.0647L11.6006 15.0653L11.6159 15.0647C12.3515 15.0505 13.0558 14.6061 13.3612 13.3478C13.4787 12.9204 13.5383 12.3898 13.5388 11.8421L13.5366 11.6434C13.5173 10.766 13.3691 10.1365 13.1393 9.68873C12.7766 8.92535 12.1999 8.6393 11.604 8.63249L11.6006 8.63135H11.5813L11.5773 8.63249C10.9814 8.6393 10.4047 8.92535 10.0426 9.68873C9.81276 10.1371 9.66462 10.766 9.64532 11.644L9.64249 11.8426C9.64305 12.3898 9.70321 12.9204 9.82013 13.3478C10.1255 14.6061 10.8304 15.0505 11.566 15.0647ZM6.49022 22.4175C6.38238 22.4175 6.11052 22.3926 6.11052 22.3926V20.2301C6.11052 20.2301 6.19793 20.2097 6.29328 20.2097C6.85687 20.2097 7.52263 20.1756 7.52263 21.313C7.52263 22.3545 6.79103 22.4175 6.49022 22.4175ZM6.62474 19.2352C6.43347 19.2352 6.2632 19.2397 6.11052 19.2477V18.2471H8.10381V17.2254H4.99979V23.3665H6.68547C8.3666 23.3665 8.62654 21.8466 8.62654 21.2841C8.62654 20.6195 8.3683 19.2352 6.62474 19.2352ZM17.4601 19.1881H15.9351V17.2254H14.8266V23.3682H15.9351V20.2091H17.4601V23.3682H18.5692V17.2254H17.4601V19.1881ZM21.138 14.9308V9.81132H22.0608V8.79027H19.0908V9.81189H20.0136V14.9308H21.138ZM16.7484 11.9658V14.9308H17.8603V8.79027H16.7478V10.9289H16.144C15.8942 10.9289 15.7086 10.8721 15.5906 10.7575C15.5066 10.678 15.4657 10.5696 15.4657 10.4294V8.79027H14.3533V10.544C14.3533 10.9476 14.5099 11.2893 14.8204 11.5611C15.1269 11.8302 15.5015 11.9658 15.9362 11.9658H16.7484ZM6.11052 9.81189H7.48687V14.9308H8.5993V8.79027H4.99979V14.9308H6.11052V9.81189ZM10.9433 19.364C10.9456 19.2392 10.9689 18.3651 10.9706 18.2471L11.167 18.234C11.9769 18.234 12.125 18.3924 12.1999 19.3635L10.9433 19.364ZM11.4309 17.2254H9.92286L9.71797 23.3676H10.8168C10.8168 23.3676 10.9178 20.5196 10.924 20.3839L12.3129 20.3851C12.3254 20.5088 12.5325 23.3676 12.5325 23.3676H13.6677C13.6677 23.3676 13.2772 19.1489 13.2454 18.8782C13.1188 17.7919 12.6165 17.2254 11.4309 17.2254ZM24.2766 10.9289C24.2794 10.804 24.3022 9.92994 24.3039 9.81189H24.5133C25.3221 9.81189 25.4577 9.95662 25.5332 10.9289H24.2766ZM26.5787 10.4436C26.4515 9.3567 25.9498 8.79027 24.7641 8.79027H23.2561L23.0507 14.9319H24.15C24.15 14.9319 24.2511 12.0839 24.2573 11.9493H25.6456C25.6586 12.0736 25.8658 14.9319 25.8658 14.9319H27.0004C27.0004 14.9319 26.6099 10.7138 26.5787 10.4436Z" fill="white"/>
</g>
</svg>

