<svg width="32" height="32" viewBox="0 0 32 32" fill="none" xmlns="http://www.w3.org/2000/svg">
<path d="M0 8C0 3.58172 3.58172 0 8 0H24C28.4183 0 32 3.58172 32 8V24C32 28.4183 28.4183 32 24 32H8C3.58172 32 0 28.4183 0 24V8Z" fill="#005BFF"/>
<g clip-path="url(#clip0_219_4028)">
<mask id="mask0_219_4028" style="mask-type:luminance" maskUnits="userSpaceOnUse" x="3" y="8" width="26" height="16">
<path d="M29 8.5H3V23.5H29V8.5Z" fill="white"/>
</mask>
<g mask="url(#mask0_219_4028)">
<mask id="mask1_219_4028" style="mask-type:luminance" maskUnits="userSpaceOnUse" x="3" y="6" width="24" height="9">
<path d="M27 6.83496H3V14.835H27V6.83496Z" fill="white"/>
</mask>
<g mask="url(#mask1_219_4028)">
<path d="M8.9759 11.9586C8.9759 13.6606 7.71207 14.835 5.98796 14.835C4.26308 14.835 3 13.6606 3 11.9586C3 10.2565 4.26384 9.08217 5.98796 9.08217C7.71283 9.08217 8.9759 10.2565 8.9759 11.9586ZM20.6209 11.9586C20.6209 13.6606 19.357 14.835 17.6329 14.835C15.9088 14.835 14.645 13.6606 14.645 11.9586C14.645 10.2565 15.9088 9.08217 17.6329 9.08217C19.357 9.08217 20.6209 10.2565 20.6209 11.9586ZM26.7001 11.3286V14.648H25.2486V11.6353C25.2486 10.7676 24.8385 10.4094 24.139 10.4094C23.4045 10.4094 22.8751 10.8176 22.8751 11.9926V14.648H21.4237V9.25177H22.8584V10.0687H22.8926C23.2511 9.4562 23.8663 9.08141 24.6517 9.08141C25.8289 9.08217 26.7001 9.72877 26.7001 11.3286ZM48.5793 9.25177V14.648H47.1277V12.4689H44.805V14.648H43.3537V9.25177H44.805V11.209H47.1277V9.25177H48.5793ZM40.6733 9.25177V10.0347H40.6393C40.3833 9.49027 39.6997 9.08141 38.8293 9.08141C37.412 9.08141 36.2507 10.1028 36.2507 11.9412C36.2507 13.7969 37.3777 14.835 38.8293 14.835C39.717 14.835 40.349 14.4261 40.6393 13.9158H40.6733V14.648H42.1247V9.25177H40.6733ZM32.9901 9.20104C32.1022 9.20104 31.4194 9.6099 31.0609 10.2565H31.0267C31.0776 9.06475 31.4877 8.55444 32.8875 8.41815L35.0559 8.21372V6.83496L32.6483 7.02197C30.2922 7.20899 29.592 8.80959 29.592 11.3627C29.592 13.6266 30.9067 14.835 32.6141 14.835C34.3048 14.835 35.602 13.6266 35.602 11.9412C35.602 10.2565 34.424 9.20104 32.9901 9.20104ZM9.5053 9.25177V10.4776H12.3565L9.43693 13.4903V14.648H14.2865V13.4221H11.2302L14.1498 10.392V9.25177H9.5053ZM39.2053 13.5243C38.334 13.5243 37.7713 12.8777 37.7713 11.9752C37.7713 11.0561 38.3347 10.392 39.2053 10.392C40.0757 10.392 40.6733 11.0386 40.6733 11.9578C40.6733 12.8603 40.0757 13.5243 39.2053 13.5243ZM4.5198 11.9586C4.5198 12.8944 5.10008 13.5077 5.98796 13.5077C6.87583 13.5077 7.4561 12.8952 7.4561 11.9586C7.4561 11.022 6.87583 10.4094 5.98796 10.4094C5.10008 10.4094 4.5198 11.022 4.5198 11.9586ZM16.1648 11.9586C16.1648 12.8944 16.745 13.5077 17.6329 13.5077C18.5208 13.5077 19.1011 12.8952 19.1011 11.9586C19.1011 11.022 18.5208 10.4094 17.6329 10.4094C16.745 10.4094 16.1648 11.022 16.1648 11.9586ZM32.5966 13.5243C31.7604 13.5243 31.111 12.8944 31.111 11.9586C31.111 11.0053 31.7596 10.4435 32.5966 10.4435C33.4336 10.4435 34.0822 11.0053 34.0822 11.9586C34.0822 12.8944 33.4336 13.5243 32.5966 13.5243ZM53.2237 14.648L51.2603 12.0608V14.648H49.809V9.25177H51.2603V11.4816L53.0703 9.25177H54.8633L52.6433 11.7027L55.0677 14.6472H53.2237V14.648Z" fill="white"/>
</g>
<mask id="mask2_219_4028" style="mask-type:luminance" maskUnits="userSpaceOnUse" x="3" y="15" width="26" height="9">
<path d="M29 15.5005H3V23.5005H29V15.5005Z" fill="white"/>
</mask>
<g mask="url(#mask2_219_4028)">
<path d="M-17.3571 20.6241C-17.3571 22.3262 -18.6209 23.5005 -20.345 23.5005C-22.0699 23.5005 -23.333 22.3262 -23.333 20.6241C-23.333 18.922 -22.0692 17.7477 -20.345 17.7477C-18.6202 17.7477 -17.3571 18.922 -17.3571 20.6241ZM-5.71214 20.6241C-5.71214 22.3262 -6.97597 23.5005 -8.70007 23.5005C-10.4242 23.5005 -11.688 22.3262 -11.688 20.6241C-11.688 18.922 -10.4242 17.7477 -8.70007 17.7477C-6.97597 17.7477 -5.71214 18.922 -5.71214 20.6241ZM0.367059 19.9942V23.3135H-1.08437V20.3008C-1.08437 19.4331 -1.49451 19.075 -2.19404 19.075C-2.92847 19.075 -3.45787 19.4831 -3.45787 20.6582V23.3135H-4.90931V17.9173H-3.47457V18.7343H-3.44041C-3.08191 18.1217 -2.46671 17.7469 -1.68134 17.7469C-0.504107 17.7477 0.367059 18.3943 0.367059 19.9942ZM22.2463 17.9173V23.3135H20.7947V21.1344H18.472V23.3135H17.0207V17.9173H18.472V19.8745H20.7947V17.9173H22.2463ZM14.3403 17.9173V18.7002H14.3063C14.0503 18.1558 13.3667 17.7469 12.4963 17.7469C11.079 17.7469 9.91766 18.7683 9.91766 20.6067C9.91766 22.4625 11.0447 23.5005 12.4963 23.5005C13.384 23.5005 14.016 23.0916 14.3063 22.5813H14.3403V23.3135H15.7917V17.9173H14.3403ZM6.65706 17.8666C5.76916 17.8666 5.08636 18.2754 4.72786 18.922H4.69369C4.74456 17.7303 5.15473 17.22 6.55453 17.0837L8.72293 16.8793V15.5005L6.31526 15.6875C3.95923 15.8745 3.25896 17.4751 3.25896 20.0282C3.25896 22.2921 4.57369 23.5005 6.28109 23.5005C7.97179 23.5005 9.26903 22.2921 9.26903 20.6067C9.26903 18.922 8.09103 17.8666 6.65706 17.8666ZM-16.8277 17.9173V19.1431H-13.9765L-16.8961 22.1558V23.3135H-12.0465V22.0877H-15.1028L-12.1832 19.0576V17.9173H-16.8277ZM12.8723 22.1899C12.001 22.1899 11.4383 21.5433 11.4383 20.6408C11.4383 19.7216 12.0017 19.0576 12.8723 19.0576C13.7427 19.0576 14.3403 19.7042 14.3403 20.6233C14.3403 21.5259 13.7427 22.1899 12.8723 22.1899ZM-21.8132 20.6241C-21.8132 21.5599 -21.2329 22.1732 -20.345 22.1732C-19.4572 22.1732 -18.8769 21.5607 -18.8769 20.6241C-18.8769 19.6875 -19.4572 19.075 -20.345 19.075C-21.2329 19.075 -21.8132 19.6875 -21.8132 20.6241ZM-10.1682 20.6241C-10.1682 21.5599 -9.58797 22.1732 -8.70007 22.1732C-7.81221 22.1732 -7.23194 21.5607 -7.23194 20.6241C-7.23194 19.6875 -7.81221 19.075 -8.70007 19.075C-9.58797 19.075 -10.1682 19.6875 -10.1682 20.6241ZM6.26363 22.1899C5.42739 22.1899 4.77799 21.5599 4.77799 20.6241C4.77799 19.6709 5.42663 19.1091 6.26363 19.1091C7.10059 19.1091 7.74923 19.6709 7.74923 20.6241C7.74923 21.5599 7.10059 22.1899 6.26363 22.1899ZM26.8907 23.3135L24.9273 20.7263V23.3135H23.476V17.9173H24.9273V20.1471L26.7373 17.9173H28.5303L26.3103 20.3682L28.7347 23.3127H26.8907V23.3135Z" fill="white"/>
</g>
</g>
</g>
<defs>
<clipPath id="clip0_219_4028">
<rect width="26" height="15" fill="white" transform="translate(3 8.5)"/>
</clipPath>
</defs>
</svg>
