<svg width="44" height="44" viewBox="0 0 44 44" fill="none" xmlns="http://www.w3.org/2000/svg">
<rect width="44" height="44" rx="22" fill="#69A6F1"/>
<path d="M20.3375 17.4958H21.9307V27.5H20.2634L20.0596 26.2773C19.0962 27.253 17.892 27.7408 16.4469 27.7408C14.9525 27.7408 13.7051 27.2406 12.7046 26.2402C11.7166 25.2398 11.2225 23.9924 11.2225 22.4979C11.2225 20.9911 11.7166 19.7436 12.7046 18.7556C13.7051 17.7552 14.9525 17.2549 16.4469 17.2549C17.9167 17.2549 19.1333 17.749 20.0966 18.7371L20.3375 17.4958ZM14.2423 24.8507C14.8722 25.4683 15.6565 25.7771 16.5952 25.7771C17.5462 25.7771 18.3243 25.4683 18.9295 24.8507C19.547 24.2208 19.8558 23.4366 19.8558 22.4979C19.8558 21.5469 19.547 20.7626 18.9295 20.1451C18.3243 19.5275 17.5462 19.2187 16.5952 19.2187C15.9776 19.2187 15.4156 19.3608 14.9093 19.6448C14.4152 19.9289 14.0262 20.3241 13.7421 20.8305C13.458 21.3246 13.316 21.8804 13.316 22.4979C13.316 23.4366 13.6248 24.2208 14.2423 24.8507ZM29.1799 19.7931C30.1432 19.966 30.9152 20.4044 31.4957 21.1084C32.0885 21.8124 32.3849 22.6523 32.3849 23.628C32.3849 24.8137 31.9774 25.7956 31.1622 26.5737C30.3594 27.3394 29.3528 27.7223 28.1424 27.7223C26.9691 27.7223 25.9934 27.358 25.2152 26.6293C24.4495 25.8882 24.0419 24.9372 23.9925 23.7762H25.9934C26.0304 24.3938 26.2465 24.894 26.6418 25.2768C27.037 25.6474 27.5372 25.8326 28.1424 25.8326C28.7847 25.8326 29.3157 25.6227 29.7357 25.2027C30.1556 24.7705 30.3656 24.227 30.3656 23.5724C30.3656 23.2513 30.3038 22.9549 30.1803 22.6832C30.0568 22.3991 29.8901 22.1582 29.6801 21.9606C29.4701 21.763 29.2169 21.6148 28.9205 21.516C28.6241 21.4048 28.303 21.3493 27.9571 21.3493H26.4009V20.9602L28.9576 16.9956H24.363V15.18H31.9032V15.5876L29.1799 19.7931Z" fill="white"/>
</svg>
