<svg width="32" height="32" viewBox="0 0 32 32" fill="none" xmlns="http://www.w3.org/2000/svg">
<path fill-rule="evenodd" clip-rule="evenodd" d="M10.02 5.21198C11.6027 3.58471 13.7534 2.66699 16 2.66699C18.2465 2.66699 20.3972 3.58471 21.98 5.21198C23.5622 6.83863 24.4478 9.04099 24.4478 11.3337C24.4478 15.3392 25.429 18.0397 26.4918 19.7957L26.4996 19.8087C26.9693 20.5847 27.331 21.1824 27.5724 21.613C27.6933 21.8286 27.7934 22.0188 27.8635 22.1775C27.8985 22.2568 27.932 22.3416 27.9566 22.4265C27.9782 22.501 28.009 22.6281 27.9974 22.7742C27.9582 23.2676 27.6308 23.5617 27.3289 23.7036C27.0482 23.8356 26.7387 23.8691 26.5021 23.8691H5.49781C5.26129 23.8691 4.95174 23.8356 4.67103 23.7036C4.36919 23.5617 4.04179 23.2676 4.00254 22.7742C3.99092 22.6281 4.02175 22.501 4.04334 22.4265C4.06792 22.3416 4.10145 22.2568 4.13648 22.1775C4.20659 22.0188 4.30666 21.8286 4.42752 21.613C4.66893 21.1824 5.03061 20.5848 5.50021 19.8089L5.50819 19.7957C6.57096 18.0397 7.55213 15.3392 7.55213 11.3337C7.55213 9.04099 8.4378 6.83863 10.02 5.21198Z" fill="#69A6F1"/>
<path fill-rule="evenodd" clip-rule="evenodd" d="M12.1795 26.8786C12.4308 26.6095 12.8527 26.5951 13.1217 26.8465C13.895 27.5688 14.902 28.0003 16 28.0003C17.0979 28.0003 18.1049 27.5688 18.8782 26.8465C19.1473 26.5951 19.5692 26.6095 19.8205 26.8786C20.0718 27.1476 20.0575 27.5695 19.7884 27.8208C18.785 28.7581 17.4581 29.3337 16 29.3337C14.5418 29.3337 13.215 28.7581 12.2116 27.8208C11.9425 27.5695 11.9281 27.1476 12.1795 26.8786Z" fill="#69A6F1"/>
</svg>
