<svg width="32" height="32" viewBox="0 0 32 32" fill="none" xmlns="http://www.w3.org/2000/svg">
<path fill-rule="evenodd" clip-rule="evenodd" d="M15.2717 2.74716C15.7516 2.63962 16.2494 2.63962 16.7293 2.74716L27.4801 5.15607C27.7845 5.22429 28.001 5.49458 28.001 5.80661V19.7455C28.001 20.7727 27.5118 21.7394 26.6827 22.3431L17.9627 28.6933C16.7932 29.545 15.2078 29.545 14.0382 28.6933L5.31821 22.3431C4.48917 21.7394 4 20.7727 4 19.7455V5.80661C4 5.49458 4.21642 5.22429 4.5209 5.15607L15.2717 2.74716ZM16.0008 7.6792C16.2456 7.6792 16.4707 7.81337 16.5872 8.0287L18.3978 11.3763L22.1129 12.0778C22.3519 12.1229 22.5474 12.2947 22.6229 12.526C22.6984 12.7573 22.6419 13.0114 22.4755 13.1888L19.876 15.9613L20.363 19.746C20.3942 19.9883 20.2904 20.2282 20.0925 20.3713C19.8946 20.5144 19.6343 20.5379 19.414 20.4325L16.0008 18.7988L12.5876 20.4325C12.3673 20.5379 12.1069 20.5144 11.909 20.3713C11.7111 20.2282 11.6074 19.9883 11.6385 19.746L12.1256 15.9613L9.52606 13.1888C9.35964 13.0114 9.30313 12.7573 9.37862 12.526C9.45411 12.2947 9.64961 12.1229 9.88869 12.0778L13.6038 11.3763L15.4144 8.0287C15.5308 7.81337 15.756 7.6792 16.0008 7.6792Z" fill="#69A6F1"/>
</svg>
