<svg width="32" height="32" viewBox="0 0 32 32" fill="none" xmlns="http://www.w3.org/2000/svg">
<path d="M19.9675 4.66569C19.9675 4.2975 19.669 3.99902 19.3008 3.99902C18.9326 3.99902 18.6341 4.2975 18.6341 4.66569V5.63368H17.6765C17.3083 5.63368 17.0098 5.93216 17.0098 6.30035C17.0098 6.66854 17.3083 6.96702 17.6765 6.96702H18.6341V7.93351C18.6341 8.3017 18.9326 8.60018 19.3008 8.60018C19.669 8.60018 19.9675 8.3017 19.9675 7.93351V6.96702H20.9266C21.2948 6.96702 21.5933 6.66854 21.5933 6.30035C21.5933 5.93216 21.2948 5.63368 20.9266 5.63368H19.9675V4.66569Z" fill="#69A6F1"/>
<path d="M12.3324 10.0992C12.2187 9.87541 11.989 9.73439 11.7379 9.73439C11.4869 9.73439 11.2571 9.87541 11.1435 10.0992L8.69386 14.924L3.20815 15.7036C2.95481 15.7396 2.74444 15.9174 2.66675 16.1612C2.58906 16.405 2.65776 16.6717 2.84356 16.8477L6.80109 20.5952L5.86796 25.8846C5.82401 26.1337 5.92485 26.3863 6.12829 26.5366C6.33174 26.6869 6.60274 26.7092 6.82797 26.594L11.7379 24.0837L16.6479 26.594C16.8731 26.7092 17.1441 26.6869 17.3476 26.5366C17.551 26.3863 17.6518 26.1337 17.6079 25.8846L16.6748 20.5952L20.6323 16.8477C20.8181 16.6717 20.8868 16.405 20.8091 16.1612C20.7314 15.9174 20.521 15.7396 20.2677 15.7036L14.782 14.924L12.3324 10.0992Z" fill="#69A6F1"/>
<path d="M26.5576 8.79532C26.5576 8.42713 26.2591 8.12866 25.8909 8.12866C25.5227 8.12866 25.2242 8.42713 25.2242 8.79532V10.8815H23.1526C22.7845 10.8815 22.486 11.18 22.486 11.5482C22.486 11.9164 22.7845 12.2149 23.1526 12.2149H25.2242V14.3014C25.2242 14.6696 25.5227 14.968 25.8909 14.968C26.2591 14.968 26.5576 14.6696 26.5576 14.3014V12.2149H28.6289C28.9971 12.2149 29.2956 11.9164 29.2956 11.5482C29.2956 11.18 28.9971 10.8815 28.6289 10.8815H26.5576V8.79532Z" fill="#69A6F1"/>
</svg>
