<svg width="32" height="32" viewBox="0 0 32 32" fill="none" xmlns="http://www.w3.org/2000/svg">
<rect width="32" height="32" rx="8" fill="#948DE5"/>
<path d="M14.288 12.08H15.5493V20H14.2293L14.068 19.032C13.3053 19.8044 12.352 20.1907 11.208 20.1907C10.0249 20.1907 9.03733 19.7947 8.24533 19.0027C7.46311 18.2107 7.072 17.2231 7.072 16.04C7.072 14.8471 7.46311 13.8596 8.24533 13.0773C9.03733 12.2853 10.0249 11.8893 11.208 11.8893C12.3716 11.8893 13.3347 12.2804 14.0973 13.0627L14.288 12.08ZM9.46267 17.9027C9.96133 18.3916 10.5822 18.636 11.3253 18.636C12.0782 18.636 12.6942 18.3916 13.1733 17.9027C13.6622 17.404 13.9067 16.7831 13.9067 16.04C13.9067 15.2871 13.6622 14.6662 13.1733 14.1773C12.6942 13.6884 12.0782 13.444 11.3253 13.444C10.8364 13.444 10.3916 13.5564 9.99067 13.7813C9.59956 14.0062 9.29156 14.3191 9.06667 14.72C8.84178 15.1111 8.72933 15.5511 8.72933 16.04C8.72933 16.7831 8.97378 17.404 9.46267 17.9027ZM21.2882 13.8987C22.0509 14.0356 22.662 14.3827 23.1216 14.94C23.5909 15.4973 23.8256 16.1622 23.8256 16.9347C23.8256 17.8733 23.5029 18.6507 22.8576 19.2667C22.222 19.8729 21.4251 20.176 20.4669 20.176C19.538 20.176 18.7656 19.8876 18.1496 19.3107C17.5434 18.724 17.2207 17.9711 17.1816 17.052H18.7656C18.7949 17.5409 18.966 17.9369 19.2789 18.24C19.5918 18.5333 19.9878 18.68 20.4669 18.68C20.9754 18.68 21.3958 18.5138 21.7282 18.1813C22.0607 17.8391 22.2269 17.4089 22.2269 16.8907C22.2269 16.6364 22.178 16.4018 22.0802 16.1867C21.9825 15.9618 21.8505 15.7711 21.6842 15.6147C21.518 15.4582 21.3176 15.3409 21.0829 15.2627C20.8482 15.1747 20.594 15.1307 20.3202 15.1307H19.0882V14.8227L21.1122 11.684H17.4749V10.2467H23.4442V10.5693L21.2882 13.8987Z" fill="white"/>
</svg>
