<svg width="191" height="44" viewBox="0 0 191 44" fill="none" xmlns="http://www.w3.org/2000/svg">
<rect width="44" height="44" rx="22" fill="#69A6F1"/>
<path d="M20.288 18.08H21.5493V26H20.2293L20.068 25.032C19.3053 25.8044 18.352 26.1907 17.208 26.1907C16.0249 26.1907 15.0373 25.7947 14.2453 25.0027C13.4631 24.2107 13.072 23.2231 13.072 22.04C13.072 20.8471 13.4631 19.8596 14.2453 19.0773C15.0373 18.2853 16.0249 17.8893 17.208 17.8893C18.3716 17.8893 19.3347 18.2804 20.0973 19.0627L20.288 18.08ZM15.4627 23.9027C15.9613 24.3916 16.5822 24.636 17.3253 24.636C18.0782 24.636 18.6942 24.3916 19.1733 23.9027C19.6622 23.404 19.9067 22.7831 19.9067 22.04C19.9067 21.2871 19.6622 20.6662 19.1733 20.1773C18.6942 19.6884 18.0782 19.444 17.3253 19.444C16.8364 19.444 16.3916 19.5564 15.9907 19.7813C15.5996 20.0062 15.2916 20.3191 15.0667 20.72C14.8418 21.1111 14.7293 21.5511 14.7293 22.04C14.7293 22.7831 14.9738 23.404 15.4627 23.9027ZM27.2882 19.8987C28.0509 20.0356 28.662 20.3827 29.1216 20.94C29.5909 21.4973 29.8256 22.1622 29.8256 22.9347C29.8256 23.8733 29.5029 24.6507 28.8576 25.2667C28.222 25.8729 27.4251 26.176 26.4669 26.176C25.538 26.176 24.7656 25.8876 24.1496 25.3107C23.5434 24.724 23.2207 23.9711 23.1816 23.052H24.7656C24.7949 23.5409 24.966 23.9369 25.2789 24.24C25.5918 24.5333 25.9878 24.68 26.4669 24.68C26.9754 24.68 27.3958 24.5138 27.7282 24.1813C28.0607 23.8391 28.2269 23.4089 28.2269 22.8907C28.2269 22.6364 28.178 22.4018 28.0802 22.1867C27.9825 21.9618 27.8505 21.7711 27.6842 21.6147C27.518 21.4582 27.3176 21.3409 27.0829 21.2627C26.8482 21.1747 26.594 21.1307 26.3202 21.1307H25.0882V20.8227L27.1122 17.684H23.4749V16.2467H29.4442V16.5693L27.2882 19.8987Z" fill="white"/>
<rect x="48" width="143" height="44" rx="22" fill="#EDF3FD"/>
<path d="M61.552 18.08H66.9347V26H65.336V19.488H62.8867L62.5347 22.9933C62.4271 24.108 62.1387 24.8951 61.6693 25.3547C61.2098 25.8142 60.5107 26.044 59.572 26.044H59.2933V24.548H59.6747C60.4471 24.548 60.8822 24.064 60.98 23.096L61.552 18.08ZM74.9151 18.08H75.8244V26H74.2697V20.9693L70.0457 26H69.1071V18.08H70.6764V23.0667L74.9151 18.08ZM82.3101 18.08H83.8941V26H82.3101V23.1693C81.7724 23.3649 81.2053 23.4627 80.6088 23.4627C79.6408 23.4627 78.8635 23.1791 78.2768 22.612C77.6901 22.0449 77.3968 21.2627 77.3968 20.2653V18.08H78.9955V20.2067C78.9955 20.7738 79.1421 21.2089 79.4355 21.512C79.7386 21.8151 80.1737 21.9667 80.7408 21.9667C81.3079 21.9667 81.831 21.8396 82.3101 21.5853V18.08ZM91.3385 18.08H92.9372V26H91.3385V22.6853H87.6718V26H86.0585V18.08H87.6718V21.1893H91.3385V18.08ZM98.3925 20.4267C99.2627 20.4267 99.9667 20.6858 100.504 21.204C101.042 21.7222 101.311 22.3969 101.311 23.228C101.311 24.0493 101.042 24.7191 100.504 25.2373C99.9667 25.7458 99.2627 26 98.3925 26H95.1072V18.08H96.7058V20.4267H98.3925ZM102.69 18.08H104.318V26H102.69V18.08ZM98.2018 24.592C98.6418 24.592 98.9987 24.4698 99.2725 24.2253C99.5463 23.9711 99.6832 23.6387 99.6832 23.228C99.6832 22.9542 99.6196 22.7147 99.4925 22.5093C99.3752 22.2942 99.204 22.128 98.9792 22.0107C98.7543 21.8933 98.4952 21.8347 98.2018 21.8347H96.7058V24.592H98.2018ZM111.873 15.4693V16.6867H107.942V15.4693H111.873ZM112.298 18.08H113.208V26H111.653V20.9693L107.429 26H106.49V18.08H108.06V23.0667L112.298 18.08ZM123.917 26L121.541 22.6267H120.558V26H118.93V18.08H120.558V21.1453H121.556L123.712 18.08H125.633L122.949 21.8787L125.926 26H123.917ZM133.276 18.08H134.537V26H133.217L133.056 25.032C132.293 25.8044 131.34 26.1907 130.196 26.1907C129.013 26.1907 128.025 25.7947 127.233 25.0027C126.451 24.2107 126.06 23.2231 126.06 22.04C126.06 20.8471 126.451 19.8596 127.233 19.0773C128.025 18.2853 129.013 17.8893 130.196 17.8893C131.36 17.8893 132.323 18.2804 133.085 19.0627L133.276 18.08ZM128.451 23.9027C128.949 24.3916 129.57 24.636 130.313 24.636C131.066 24.636 131.682 24.3916 132.161 23.9027C132.65 23.404 132.895 22.7831 132.895 22.04C132.895 21.2871 132.65 20.6662 132.161 20.1773C131.682 19.6884 131.066 19.444 130.313 19.444C129.825 19.444 129.38 19.5564 128.979 19.7813C128.588 20.0062 128.28 20.3191 128.055 20.72C127.83 21.1111 127.717 21.5511 127.717 22.04C127.717 22.7831 127.962 23.404 128.451 23.9027ZM140.746 18.4613C141.89 18.4613 142.819 18.8133 143.532 19.5173C144.256 20.2213 144.618 21.1356 144.618 22.26C144.618 23.4236 144.236 24.372 143.474 25.1053C142.721 25.8289 141.733 26.1907 140.511 26.1907C139.22 26.1907 138.203 25.7898 137.46 24.988C136.727 24.1764 136.36 23.0667 136.36 21.6587C136.36 19.7324 136.727 18.2707 137.46 17.2733C138.203 16.2662 139.44 15.5524 141.171 15.132L143.65 14.5307V16.144L141.2 16.7307C139.509 17.1316 138.507 18.0164 138.194 19.3853C138.878 18.7693 139.729 18.4613 140.746 18.4613ZM140.511 24.6507C141.215 24.6507 141.797 24.4258 142.256 23.976C142.726 23.5164 142.96 22.9444 142.96 22.26C142.96 21.8004 142.853 21.3898 142.638 21.028C142.423 20.6564 142.129 20.368 141.758 20.1627C141.386 19.9476 140.971 19.84 140.511 19.84C140.051 19.84 139.631 19.9476 139.25 20.1627C138.878 20.368 138.585 20.6564 138.37 21.028C138.164 21.3898 138.062 21.8004 138.062 22.26C138.062 22.9444 138.291 23.5164 138.751 23.976C139.22 24.4258 139.807 24.6507 140.511 24.6507ZM152.027 18.08H152.937V26H151.382V20.9693L147.158 26H146.219V18.08H147.789V23.0667L152.027 18.08ZM160.39 18.08H161.989V26H160.39V22.6853H156.724V26H155.11V18.08H156.724V21.1893H160.39V18.08ZM171.683 22.0547C171.683 22.2013 171.673 22.3822 171.654 22.5973H165.23C165.328 23.2329 165.592 23.7364 166.022 24.108C166.462 24.4796 167.004 24.6653 167.65 24.6653C167.963 24.6653 168.256 24.6213 168.53 24.5333C168.804 24.4356 169.043 24.3036 169.248 24.1373C169.464 23.9613 169.64 23.7511 169.776 23.5067H171.492C171.18 24.3476 170.681 25.0076 169.996 25.4867C169.312 25.956 168.53 26.1907 167.65 26.1907C166.486 26.1907 165.513 25.7947 164.731 25.0027C163.959 24.2107 163.572 23.2231 163.572 22.04C163.572 20.8569 163.959 19.8693 164.731 19.0773C165.513 18.2853 166.486 17.8893 167.65 17.8893C168.442 17.8893 169.146 18.08 169.762 18.4613C170.378 18.8329 170.852 19.3364 171.184 19.972C171.517 20.5978 171.683 21.292 171.683 22.0547ZM167.65 19.356C167.044 19.356 166.525 19.5271 166.095 19.8693C165.675 20.2116 165.396 20.6809 165.259 21.2773H170.055C169.957 20.8764 169.796 20.5342 169.571 20.2507C169.346 19.9573 169.068 19.7373 168.735 19.5907C168.412 19.4342 168.051 19.356 167.65 19.356ZM179.313 18.08V19.5467H176.526V26H174.942V19.5467H172.141V18.08H179.313Z" fill="#69A6F1"/>
</svg>
