<svg width="32" height="32" viewBox="0 0 32 32" fill="none" xmlns="http://www.w3.org/2000/svg">
<path d="M11.16 14.5772C11.16 13.9316 11.6834 13.4082 12.329 13.4082C12.9747 13.4082 13.4981 13.9316 13.4981 14.5772C13.4981 15.2229 12.9747 15.7463 12.329 15.7463C11.6834 15.7463 11.16 15.2229 11.16 14.5772Z" fill="#69A6F1"/>
<path d="M18.5007 21.0001C18.5007 20.3544 19.0241 19.831 19.6698 19.831C20.3155 19.831 20.8389 20.3544 20.8389 21.0001C20.8389 21.6457 20.3155 22.1691 19.6698 22.1691C19.0241 22.1691 18.5007 21.6457 18.5007 21.0001Z" fill="#69A6F1"/>
<path fill-rule="evenodd" clip-rule="evenodd" d="M11.0002 4.66667C11.0002 4.29848 10.7017 4 10.3335 4C9.96534 4 9.66686 4.29848 9.66686 4.66667V6.26688H7.33333C5.49238 6.26688 4 7.75926 4 9.60021V24.6672C4 26.5081 5.49238 28.0005 7.33333 28.0005H24.667C26.5079 28.0005 28.0003 26.5081 28.0003 24.6672V9.60021C28.0003 7.75926 26.5079 6.26688 24.667 6.26688H22.3336V4.66667C22.3336 4.29848 22.0351 4 21.6669 4C21.2987 4 21.0003 4.29848 21.0003 4.66667V6.26688H11.0002V4.66667ZM20.0614 12.202C20.3591 12.4186 20.425 12.8355 20.2084 13.1333L12.8678 23.2267C12.6512 23.5244 12.2343 23.5903 11.9365 23.3737C11.6387 23.1571 11.5729 22.7402 11.7895 22.4424L19.1301 12.3491C19.3466 12.0513 19.7636 11.9855 20.0614 12.202ZM12.329 12.0748C10.947 12.0748 9.82665 13.1952 9.82665 14.5772C9.82665 15.9593 10.947 17.0796 12.329 17.0796C13.7111 17.0796 14.8314 15.9593 14.8314 14.5772C14.8314 13.1952 13.7111 12.0748 12.329 12.0748ZM19.6698 18.4977C18.2878 18.4977 17.1674 19.618 17.1674 21.0001C17.1674 22.3821 18.2878 23.5024 19.6698 23.5024C21.0518 23.5024 22.1722 22.3821 22.1722 21.0001C22.1722 19.618 21.0518 18.4977 19.6698 18.4977Z" fill="#69A6F1"/>
</svg>
